<mxfile host="app.diagrams.net" agent="Mozilla/5.0 (X11; Linux x86_64) AppleWebKit/537.36 (KHTML, like Gecko) Chrome/141.0.0.0 Safari/537.36" version="28.2.5">
  <diagram name="Página-1" id="o3-o4MPG_sthvobzFKXW">
    <mxGraphModel dx="1426" dy="679" grid="1" gridSize="10" guides="1" tooltips="1" connect="1" arrows="1" fold="1" page="1" pageScale="1" pageWidth="827" pageHeight="1169" math="0" shadow="0">
      <root>
        <mxCell id="0" />
        <mxCell id="1" parent="0" />
        <mxCell id="09FDxShOkuP-vTnzd5Md-1" value="VISTA" style="rounded=0;whiteSpace=wrap;html=1;" vertex="1" parent="1">
          <mxGeometry x="120" y="20" width="120" height="60" as="geometry" />
        </mxCell>
        <mxCell id="09FDxShOkuP-vTnzd5Md-2" value="CONTROLADOR" style="rounded=0;whiteSpace=wrap;html=1;" vertex="1" parent="1">
          <mxGeometry x="320" y="20" width="120" height="60" as="geometry" />
        </mxCell>
        <mxCell id="09FDxShOkuP-vTnzd5Md-3" value="MODELO" style="rounded=0;whiteSpace=wrap;html=1;" vertex="1" parent="1">
          <mxGeometry x="520" y="20" width="120" height="60" as="geometry" />
        </mxCell>
        <mxCell id="09FDxShOkuP-vTnzd5Md-4" style="edgeStyle=orthogonalEdgeStyle;rounded=0;orthogonalLoop=1;jettySize=auto;html=1;exitX=0.5;exitY=1;exitDx=0;exitDy=0;entryX=0.5;entryY=0;entryDx=0;entryDy=0;" edge="1" parent="1" source="09FDxShOkuP-vTnzd5Md-5" target="09FDxShOkuP-vTnzd5Md-7">
          <mxGeometry relative="1" as="geometry" />
        </mxCell>
        <mxCell id="09FDxShOkuP-vTnzd5Md-5" value="mostrar formulario" style="rounded=1;whiteSpace=wrap;html=1;" vertex="1" parent="1">
          <mxGeometry x="120" y="280" width="120" height="40" as="geometry" />
        </mxCell>
        <mxCell id="09FDxShOkuP-vTnzd5Md-6" style="edgeStyle=orthogonalEdgeStyle;rounded=0;orthogonalLoop=1;jettySize=auto;html=1;exitX=0.5;exitY=1;exitDx=0;exitDy=0;entryX=0.5;entryY=0;entryDx=0;entryDy=0;" edge="1" parent="1" source="09FDxShOkuP-vTnzd5Md-7" target="09FDxShOkuP-vTnzd5Md-9">
          <mxGeometry relative="1" as="geometry" />
        </mxCell>
        <mxCell id="09FDxShOkuP-vTnzd5Md-7" value="completar formulario" style="rounded=1;whiteSpace=wrap;html=1;" vertex="1" parent="1">
          <mxGeometry x="120" y="360" width="120" height="40" as="geometry" />
        </mxCell>
        <mxCell id="09FDxShOkuP-vTnzd5Md-8" style="edgeStyle=orthogonalEdgeStyle;rounded=0;orthogonalLoop=1;jettySize=auto;html=1;exitX=1;exitY=0.5;exitDx=0;exitDy=0;entryX=0;entryY=0.5;entryDx=0;entryDy=0;" edge="1" parent="1" source="09FDxShOkuP-vTnzd5Md-9" target="09FDxShOkuP-vTnzd5Md-11">
          <mxGeometry relative="1" as="geometry" />
        </mxCell>
        <mxCell id="09FDxShOkuP-vTnzd5Md-9" value="confirmar formulario" style="rounded=1;whiteSpace=wrap;html=1;" vertex="1" parent="1">
          <mxGeometry x="120" y="440" width="120" height="40" as="geometry" />
        </mxCell>
        <mxCell id="09FDxShOkuP-vTnzd5Md-10" style="edgeStyle=orthogonalEdgeStyle;rounded=0;orthogonalLoop=1;jettySize=auto;html=1;exitX=0.5;exitY=1;exitDx=0;exitDy=0;entryX=0.5;entryY=0;entryDx=0;entryDy=0;" edge="1" parent="1" source="09FDxShOkuP-vTnzd5Md-11" target="09FDxShOkuP-vTnzd5Md-21">
          <mxGeometry relative="1" as="geometry" />
        </mxCell>
        <mxCell id="09FDxShOkuP-vTnzd5Md-11" value="validar datos" style="rounded=1;whiteSpace=wrap;html=1;" vertex="1" parent="1">
          <mxGeometry x="320" y="440" width="120" height="40" as="geometry" />
        </mxCell>
        <mxCell id="09FDxShOkuP-vTnzd5Md-12" style="edgeStyle=orthogonalEdgeStyle;rounded=0;orthogonalLoop=1;jettySize=auto;html=1;exitX=0;exitY=0.5;exitDx=0;exitDy=0;entryX=0;entryY=0.5;entryDx=0;entryDy=0;" edge="1" parent="1" source="09FDxShOkuP-vTnzd5Md-13" target="09FDxShOkuP-vTnzd5Md-5">
          <mxGeometry relative="1" as="geometry" />
        </mxCell>
        <mxCell id="09FDxShOkuP-vTnzd5Md-13" value="informar error" style="rounded=1;whiteSpace=wrap;html=1;" vertex="1" parent="1">
          <mxGeometry x="120" y="520" width="120" height="40" as="geometry" />
        </mxCell>
        <mxCell id="09FDxShOkuP-vTnzd5Md-14" style="edgeStyle=orthogonalEdgeStyle;rounded=0;orthogonalLoop=1;jettySize=auto;html=1;exitX=0.5;exitY=1;exitDx=0;exitDy=0;entryX=0.5;entryY=0;entryDx=0;entryDy=0;" edge="1" parent="1" source="09FDxShOkuP-vTnzd5Md-15" target="09FDxShOkuP-vTnzd5Md-17">
          <mxGeometry relative="1" as="geometry" />
        </mxCell>
        <mxCell id="09FDxShOkuP-vTnzd5Md-15" value="crear garante" style="rounded=1;whiteSpace=wrap;html=1;" vertex="1" parent="1">
          <mxGeometry x="320" y="600" width="120" height="40" as="geometry" />
        </mxCell>
        <mxCell id="09FDxShOkuP-vTnzd5Md-16" style="edgeStyle=orthogonalEdgeStyle;rounded=0;orthogonalLoop=1;jettySize=auto;html=1;exitX=1;exitY=0.5;exitDx=0;exitDy=0;" edge="1" parent="1" source="09FDxShOkuP-vTnzd5Md-17" target="09FDxShOkuP-vTnzd5Md-23">
          <mxGeometry relative="1" as="geometry" />
        </mxCell>
        <mxCell id="09FDxShOkuP-vTnzd5Md-17" value="añadir garante" style="rounded=1;whiteSpace=wrap;html=1;" vertex="1" parent="1">
          <mxGeometry x="320" y="680" width="120" height="40" as="geometry" />
        </mxCell>
        <mxCell id="09FDxShOkuP-vTnzd5Md-18" value="" style="ellipse;whiteSpace=wrap;html=1;aspect=fixed;fillStyle=solid;fillColor=light-dark(#FFFFFF,#121212);" vertex="1" parent="1">
          <mxGeometry x="170" y="770" width="20" height="20" as="geometry" />
        </mxCell>
        <mxCell id="09FDxShOkuP-vTnzd5Md-19" style="edgeStyle=orthogonalEdgeStyle;rounded=0;orthogonalLoop=1;jettySize=auto;html=1;exitX=0.5;exitY=1;exitDx=0;exitDy=0;entryX=0.5;entryY=0;entryDx=0;entryDy=0;" edge="1" parent="1" source="09FDxShOkuP-vTnzd5Md-21" target="09FDxShOkuP-vTnzd5Md-15">
          <mxGeometry relative="1" as="geometry" />
        </mxCell>
        <mxCell id="09FDxShOkuP-vTnzd5Md-20" style="edgeStyle=orthogonalEdgeStyle;rounded=0;orthogonalLoop=1;jettySize=auto;html=1;exitX=0;exitY=0.5;exitDx=0;exitDy=0;" edge="1" parent="1" source="09FDxShOkuP-vTnzd5Md-21" target="09FDxShOkuP-vTnzd5Md-13">
          <mxGeometry relative="1" as="geometry" />
        </mxCell>
        <mxCell id="09FDxShOkuP-vTnzd5Md-21" value="" style="rhombus;whiteSpace=wrap;html=1;" vertex="1" parent="1">
          <mxGeometry x="360" y="520" width="40" height="40" as="geometry" />
        </mxCell>
        <mxCell id="09FDxShOkuP-vTnzd5Md-22" style="edgeStyle=orthogonalEdgeStyle;rounded=0;orthogonalLoop=1;jettySize=auto;html=1;exitX=0.5;exitY=1;exitDx=0;exitDy=0;entryX=1;entryY=0.5;entryDx=0;entryDy=0;" edge="1" parent="1" source="09FDxShOkuP-vTnzd5Md-23" target="09FDxShOkuP-vTnzd5Md-18">
          <mxGeometry relative="1" as="geometry" />
        </mxCell>
        <mxCell id="09FDxShOkuP-vTnzd5Md-23" value="modificar tabla garantes" style="rounded=1;whiteSpace=wrap;html=1;" vertex="1" parent="1">
          <mxGeometry x="520" y="680" width="120" height="40" as="geometry" />
        </mxCell>
        <mxCell id="09FDxShOkuP-vTnzd5Md-24" style="edgeStyle=orthogonalEdgeStyle;rounded=0;orthogonalLoop=1;jettySize=auto;html=1;exitX=0.5;exitY=1;exitDx=0;exitDy=0;entryX=0.5;entryY=0;entryDx=0;entryDy=0;" edge="1" parent="1" source="09FDxShOkuP-vTnzd5Md-25" target="09FDxShOkuP-vTnzd5Md-5">
          <mxGeometry relative="1" as="geometry" />
        </mxCell>
        <mxCell id="09FDxShOkuP-vTnzd5Md-25" value="alta garantes" style="rounded=1;whiteSpace=wrap;html=1;" vertex="1" parent="1">
          <mxGeometry x="120" y="200" width="120" height="40" as="geometry" />
        </mxCell>
        <mxCell id="09FDxShOkuP-vTnzd5Md-26" style="edgeStyle=orthogonalEdgeStyle;rounded=0;orthogonalLoop=1;jettySize=auto;html=1;exitX=0.5;exitY=1;exitDx=0;exitDy=0;entryX=0.5;entryY=0;entryDx=0;entryDy=0;" edge="1" parent="1" source="09FDxShOkuP-vTnzd5Md-27" target="09FDxShOkuP-vTnzd5Md-25">
          <mxGeometry relative="1" as="geometry" />
        </mxCell>
        <mxCell id="09FDxShOkuP-vTnzd5Md-27" value="vista garantes" style="rounded=1;whiteSpace=wrap;html=1;" vertex="1" parent="1">
          <mxGeometry x="120" y="120" width="120" height="40" as="geometry" />
        </mxCell>
      </root>
    </mxGraphModel>
  </diagram>
</mxfile>
